<svg id="Layer_1_1_" enable-background="new 0 0 64 64" height="512" viewBox="0 0 64 64" width="512" xmlns="http://www.w3.org/2000/svg"><path d="m27 47h1v14h-7v-8c0-3.314 2.686-6 6-6z" fill="#96e0ff"/><path d="m33 47 8 14h-13v-14z" fill="#db933e"/><path d="m32 42h-7-16l-6 6v3h16.714l6.286 4h4l-2.25-3h4.25z" fill="#ababab"/><path d="m29.566 25.956c-.738-.081-1.412-.354-1.974-.78-.93.364-1.592 1.264-1.592 2.324 0 1.381 1.119 2.5 2.5 2.5h1.5v-3.718c-.158-.093-.291-.214-.434-.326z" fill="#fce0b9"/><path d="m46 47-.063.063c-2.727 2.727-7.148 2.727-9.875 0l-.062-.063h-3l8 14 8-14z" fill="#96e0ff"/><path d="m49 47-8 14h13v-14z" fill="#db933e"/><path d="m11 42h-2l-4 4h6z" fill="#71caf0"/><path d="m55 47h-1v14h7v-8c0-3.314-2.686-6-6-6z" fill="#96e0ff"/><path d="m28 36h-4l-9 6h11z" fill="#969696"/><path d="m52 26.272v3.728h1.5c1.381 0 2.5-1.119 2.5-2.5 0-1.06-.662-1.96-1.593-2.324-.566.43-1.245.704-1.99.782-.137.107-.265.224-.417.314z" fill="#fce0b9"/><path d="m44.769 5.384.231-1.384c0-.552-.448-1-1-1h-6c-.552 0-1 .448-1 1l.24 1.442c-6.527 1.325-10.825 5.851-11.211 12.558h29.943c-.386-6.712-4.675-11.291-11.203-12.616z" fill="#fca947"/><path d="m52.417 25.958c-.139.015-.274.042-.417.042h-22c-.148 0-.289-.028-.434-.044.142.111.276.233.434.326v3.718 1c0 6.075 4.925 11 11 11s11-4.925 11-11v-1-3.728c.152-.09.28-.207.417-.314z" fill="#fce0b9"/><path d="m24 18c-.552 0-1 .448-1 1v2c0 .552.448 1 1 1h2 30 2c.552 0 1-.448 1-1v-2c0-.552-.448-1-1-1h-2.028-29.943z" fill="#fca947"/><path d="m27.593 25.176c.562.426 1.235.7 1.974.78.144.016.285.044.433.044h22c.143 0 .278-.027.417-.042.744-.078 1.424-.352 1.99-.782.962-.731 1.593-1.875 1.593-3.176h-30c0 1.301.631 2.445 1.593 3.176z" fill="#db933e"/><path d="m4 27c-.552 0-1 .448-1 1v2c0 .552.448 1 1 1h.757c.341.823.366.884.707 1.707l-.536.536c-.391.391-.391 1.024 0 1.414l1.414 1.414c.391.391 1.024.391 1.414 0l.536-.536c.823.341.884.366 1.707.707v.758c0 .552.448 1 1 1h2c.552 0 1-.448 1-1v-.757c.823-.341.884-.366 1.707-.707l.536.536c.391.391 1.024.391 1.414 0l1.414-1.414c.391-.391.391-1.024 0-1.414l-.536-.536c.341-.823.366-.884.707-1.707h.759c.552 0 1-.448 1-1v-2c0-.552-.448-1-1-1h-.757c-.341-.823-.366-.884-.707-1.707l.536-.536c.391-.391.391-1.024 0-1.414l-1.414-1.414c-.391-.391-1.024-.391-1.414 0l-.536.536c-.823-.341-.884-.366-1.707-.707v-.759c0-.552-.448-1-1-1h-2c-.552 0-1 .448-1 1v.757c-.823.341-.884.366-1.707.707l-.536-.536c-.391-.391-1.024-.391-1.414 0l-1.414 1.414c-.391.391-.391 1.024 0 1.414l.536.536c-.342.824-.368.885-.709 1.708zm8-2c2.209 0 4 1.791 4 4s-1.791 4-4 4-4-1.791-4-4 1.791-4 4-4z" fill="#969696"/><path d="m19 16-3-6h-2v-8h-4v8h-2l-3 6 4 4-1-3 2-3h4l2 3-1 3z" fill="#606060"/><path d="m41 42c-1.802 0-3.499-.442-5-1.21v6.21l.063.063c2.727 2.727 7.148 2.727 9.875 0l.062-.063v-6.21c-1.501.768-3.198 1.21-5 1.21z" fill="#fce0b9"/><path d="m26.812 14c-.427 1.228-.7 2.56-.783 4h29.943c-.083-1.437-.354-2.77-.778-4z" fill="#db933e"/><path d="m30 29h22v-2.728c.152-.09.28-.207.417-.314-.139.015-.274.042-.417.042h-22c-.148 0-.289-.028-.434-.044.142.111.276.233.434.326z" fill="#f5cba1"/><path d="m36 40.79v.561c2.772 1.878 6.278 4.492 8.952 6.527.346-.238.678-.506.986-.814l.062-.064v-6.21c-1.501.768-3.198 1.21-5 1.21s-3.499-.442-5-1.21z" fill="#f5cba1"/><path d="m38 5h6c.552 0 1 .448 1 1l-.231 1.384c5.855 1.189 9.899 5 10.951 10.616h.252c-.386-6.712-4.675-11.291-11.202-12.616l.23-1.384c0-.552-.448-1-1-1h-6c-.552 0-1 .448-1 1l.231 1.385c.183-.229.453-.385.769-.385z" fill="#fcba6c"/><path d="m37.24 7.442-.24-1.442c0-.205.077-.385.183-.544-6.494 1.34-10.769 5.857-11.154 12.544h.253c1.054-5.601 5.105-9.37 10.958-10.558z" fill="#fcba6c"/><path d="m36 30.75c-.965 0-1.75-.785-1.75-1.75s.785-1.75 1.75-1.75 1.75.785 1.75 1.75-.785 1.75-1.75 1.75zm0-2c-.138 0-.25.112-.25.25 0 .275.5.275.5 0 0-.138-.112-.25-.25-.25z"/><path d="m46 30.75c-.965 0-1.75-.785-1.75-1.75s.785-1.75 1.75-1.75 1.75.785 1.75 1.75-.785 1.75-1.75 1.75zm0-2c-.138 0-.25.112-.25.25 0 .275.5.275.5 0 0-.138-.112-.25-.25-.25z"/><path d="m41 38.75c-2.068 0-3.75-1.683-3.75-3.75h1.5c0 1.24 1.009 2.25 2.25 2.25s2.25-1.01 2.25-2.25h1.5c0 2.067-1.682 3.75-3.75 3.75z"/><path d="m55 46h-8v-4.624c3.581-2.079 6-5.946 6-10.376h.5c1.93 0 3.5-1.57 3.5-3.5 0-.959-.39-1.838-1.042-2.48.451-.589.788-1.268.941-2.02h1.101c1.103 0 2-.897 2-2v-2c0-1.103-.897-2-2-2h-1.12c-.703-6.23-4.723-10.763-10.972-12.371l.078-.465c.01-.054.014-.109.014-.164 0-1.103-.897-2-2-2h-6c-1.103 0-2 .897-2 2 0 .055.004.11.014.164l.087.523c-6.254 1.606-10.278 6.118-10.981 12.313h-1.12c-1.103 0-2 .897-2 2v2c0 1.103.897 2 2 2h1.101c.153.752.491 1.431.941 2.02-.652.642-1.042 1.521-1.042 2.48 0 1.93 1.57 3.5 3.5 3.5h.5c0 4.43 2.419 8.298 6 10.376v4.624h-8c-.801 0-1.586.135-2.334.399l.028.08-1.494 1.121 4.8 6.4h-1.709l-10.754-6.844-1.074 1.688 1.817 1.156h-12.28v-1.586l1.414-1.414h5.586c.552 0 1-.447 1-1v-3h20v-2h-4.612l1.561-4.684c.102-.305.05-.641-.138-.901s-.49-.415-.811-.415h-4c-.197 0-.391.059-.555.168l-8.748 5.832h-5.697c-.265 0-.52.105-.707.293l-6 6c-.188.187-.293.441-.293.707v3c0 .553.448 1 1 1h16.423l.627.399c-.017.201-.05.399-.05.601v8c0 .553.448 1 1 1h40c.552 0 1-.447 1-1v-8c0-3.859-3.14-7-7-7zm-30.697-9h2.31l-1.334 4h-6.976zm-14.889 6h.586v2h-2.586zm26.196 5c1.514 1.39 3.433 2.096 5.367 2.096 1.927 0 3.859-.703 5.406-2.096h.894l-6.277 10.984-6.277-10.984zm13.97 0h3.42v12h-10.277zm3.92-19h-.5v-2.101c.517-.105.994-.31 1.44-.562.349.279.56.701.56 1.163 0 .827-.673 1.5-1.5 1.5zm-17.07-22.337.583 3.501 1.973-.328-.972-5.836h5.973l-.973 5.836 1.973.328.593-3.559c5.303 1.415 8.627 5.133 9.294 10.395h-27.747c.668-5.227 3.995-8.923 9.303-10.337zm-12.43 12.337h34l.001 2h-2.001-30-2zm30.829 4c-.413 1.164-1.525 2-2.829 2h-22c-1.304 0-2.416-.836-2.829-2zm-26.329 6c-.827 0-1.5-.673-1.5-1.5 0-.462.211-.884.56-1.163.446.252.923.457 1.44.562v2.101zm2.5 2v-1-3h20v3 1c0 5.514-4.486 10-10 10s-10-4.486-10-10zm10 12c1.404 0 2.747-.255 4-.7v4.274c-2.25 2.023-5.678 2.038-8-.007v-4.267c1.253.445 2.596.7 4 .7zm-14.931 5.093c.305-.058.615-.093.931-.093h5.42l6.857 12h-10.277v-4h1c.379 0 .725-.214.895-.553s.133-.744-.095-1.047zm-4.069 5.547 3.463 2.204c.161.101.347.156.537.156h1v4h-5zm38 6.36h-5v-12c2.757 0 5 2.243 5 5z"/><path d="m15 44h2v2h-2z"/><path d="m19 44h2v2h-2z"/><path d="m4 26c-1.103 0-2 .897-2 2v2c0 1.103.897 2 2 2h.089l.195.472-.063.063c-.779.78-.779 2.049 0 2.829l1.415 1.414c.779.779 2.048.779 2.829 0l.063-.063.472.195v.09c0 1.103.897 2 2 2h2c1.103 0 2-.897 2-2v-.09l.472-.195.063.063c.779.779 2.049.779 2.828 0l1.415-1.414c.779-.78.779-2.049-.001-2.829l-.063-.063.197-.472h.089c1.103 0 2-.897 2-2v-2c0-1.103-.897-2-2-2h-.089l-.195-.472.063-.063c.779-.78.779-2.049 0-2.829l-1.415-1.414c-.779-.779-2.048-.779-2.829 0l-.063.063-.471-.195-.001-.09c.259 0 .514-.1.707-.293l4-4c.304-.305.38-.77.188-1.154l-3-6c-.17-.339-.516-.553-.895-.553h-1v-7h-2v8c0 .553.448 1 1 1h1.382l2.401 4.803-.847.847c-.027-.071-.062-.14-.104-.204l-2-3c-.186-.279-.498-.446-.832-.446h-4c-.334 0-.646.167-.832.445l-2 3c-.043.064-.078.133-.104.204l-.847-.847 2.401-4.802h1.382c.552 0 1-.447 1-1v-8h-2v7h-1c-.379 0-.725.214-.895.553l-3 6c-.192.385-.117.85.188 1.154l4 4c.193.193.449.281.708.281 0 .004-.001.008-.001.012v.09l-.472.195-.063-.063c-.779-.779-2.049-.779-2.828 0l-1.415 1.414c-.779.78-.779 2.049.001 2.829l.063.063-.197.472zm6.535-11h2.93l1.432 2.147-.742 2.225c-.327-.232-.724-.372-1.155-.372h-2c-.431 0-.828.14-1.155.373l-.742-2.225zm-5.778 13c.404 0 .769-.244.924-.617l.707-1.707c.155-.374.069-.805-.217-1.09l-.535-.536 1.414-1.414.536.536c.287.286.717.369 1.091.217l1.706-.707c.373-.155.617-.52.617-.924v-.758h2v.758c0 .404.244.77.618.924l1.706.707c.374.152.804.069 1.091-.217l.535-.536 1.415 1.415-.535.535c-.287.285-.372.716-.217 1.09l.707 1.707c.154.373.518.617.923.617h.757v2h-.757c-.404 0-.769.244-.924.617l-.707 1.707c-.155.374-.069.805.217 1.09l.535.536-1.414 1.414-.536-.536c-.287-.287-.718-.374-1.09-.217l-1.707.707c-.373.155-.617.52-.617.924v.758h-2v-.758c0-.404-.244-.77-.618-.924l-1.707-.707c-.124-.052-.253-.076-.382-.076-.26 0-.516.102-.708.293l-.535.536-1.415-1.415.535-.535c.287-.285.372-.716.217-1.09l-.707-1.707c-.154-.373-.518-.617-.923-.617h-.757v-2z"/><path d="m12 34c2.757 0 5-2.243 5-5s-2.243-5-5-5-5 2.243-5 5 2.243 5 5 5zm0-8c1.654 0 3 1.346 3 3s-1.346 3-3 3-3-1.346-3-3 1.346-3 3-3z"/></svg>